<svg xmlns="http://www.w3.org/2000/svg" width="58" height="45" viewBox="0 7 58 45"><path d="M53.379 32.572v-2.104a.985.985 0 0 0-.986-.985h-.972c-.048-12.34-8.126-22.316-21.636-22.316-13.518 0-22.028 9.403-22.223 22.393h-.985a.985.985 0 0 0-.987.985v2.095h-.225c-.996 0-1.804.807-1.804 1.803v8.266c0 .996.808 1.803 1.804 1.803h.225v2.17c0 .545.442.986.987.986h2.009a.986.986 0 0 0 .987-.986v-2.178a1.799 1.799 0 0 0 1.729-1.795v-8.266c0-.947-.733-1.715-1.662-1.789a30.31 30.31 0 0 1-.067-1.271v-.838c0-.033-.016-.062-.019-.095C9.537 19.085 16.132 9.271 29.71 9.271c13.595 0 19.661 9.838 19.687 21.345v.007c.002.643-.021 1.291-.057 1.941h-.169c-.996 0-1.804.808-1.804 1.804v8.266c0 .996.808 1.804 1.804 1.804h.226v2.17c0 .545.441.985.986.985h2.01c.545 0 .986-.44.986-.985V44.43a1.8 1.8 0 0 0 1.729-1.796v-8.266a1.8 1.8 0 0 0-1.729-1.796z"/></svg>