<svg xmlns="http://www.w3.org/2000/svg" width="48" height="54" viewBox="0 0 48 54"><path d="M42.119 1.306H4.401c-.934 0-1.446.607-1.446 1.564V50.592c0 .957.512 2.242 1.446 2.242h37.718c.933 0 1.445-1.285 1.445-2.244V2.87c0-.957-.51-1.564-1.445-1.564zm-1.264 48.797H5.666V3.975h35.186v46.128h.003z"/><path d="M5.215 11.03h36.451v1.626H5.215z"/><path d="M15.436 3.25h1.447v8.141h-1.447zM36.154 26.94h-9.141c-.465 0-.719.302-.719.776v7.192c0 .474.255 1.111.719 1.111h9.141c.464 0 .718-.638.718-1.114v-7.189c0-.474-.254-.776-.718-.776zm-.629 7.725h-7.879v-6.398h7.879v6.398z"/><path d="M23.531 20.448c4.835 0 8.931 3.168 10.329 7.542h1.71c-1.496-5.246-6.313-9.091-12.039-9.091-6.919 0-12.529 5.609-12.529 12.528 0 6.918 5.61 12.525 12.529 12.525 5.685 0 10.476-3.789 12.01-8.977h-1.818c-1.509 4.177-5.497 7.166-10.191 7.166-5.992 0-10.847-4.856-10.847-10.848 0-5.986 4.854-10.845 10.846-10.845zm12.459 9.677v2.599a12.4 12.4 0 0 0 0-2.599z"/><path d="M29.34 34.906c-1.214 1.998-3.39 3.348-5.898 3.348a6.92 6.92 0 0 1-6.921-6.919 6.92 6.92 0 0 1 6.921-6.916c2.628 0 4.885 1.482 6.057 3.64h1.996a8.73 8.73 0 0 0-16.781 3.368 8.729 8.729 0 0 0 8.729 8.728 8.72 8.72 0 0 0 7.999-5.246H29.34v-.003z"/></svg>